<svg width="156" height="53" viewBox="0 0 156 53" fill="none" xmlns="http://www.w3.org/2000/svg">
<mask id="path-1-outside-1_7_3063" maskUnits="userSpaceOnUse" x="1" y="2.896" width="155" height="49" fill="black">
<rect fill="white" x="1" y="2.896" width="155" height="49"/>
<path d="M152.939 12.9336V12.9415C152.227 15.8008 150.179 17.8721 148.706 19.179L148.67 19.2106C148.441 19.4101 148.2 19.5965 147.95 19.769C148.058 19.9913 148.15 20.2217 148.223 20.4581L148.235 20.5017C148.516 21.4437 148.587 22.4359 148.445 23.4085C148.177 25.0345 147.737 26.6275 147.134 28.1609C146.868 28.9054 146.615 29.6104 146.421 30.3034C145.886 32.1568 145.276 34.3508 144.785 36.5924C144.436 38.2271 144.313 39.9022 144.421 41.5704C144.485 42.3074 144.353 43.0482 144.038 43.7175C143.723 44.3868 143.236 44.9605 142.627 45.3802C141.444 46.2931 140.118 47.0036 138.702 47.4832C136.37 48.1921 134.742 47.5742 133.788 46.9287C133.631 46.8232 133.482 46.7081 133.34 46.5842C132.161 47.3221 130.843 47.8076 129.467 48.0099C128.917 48.0918 128.363 48.1341 127.807 48.1366C126.728 48.1673 125.655 47.9694 124.658 47.5557C123.66 47.1421 122.762 46.5222 122.021 45.7367C121.826 45.5317 121.643 45.3162 121.471 45.0911C120.954 45.4638 120.41 45.7974 119.843 46.0891C118.246 46.9352 116.421 47.2514 114.632 46.9921C113.121 46.8257 111.692 46.2245 110.517 45.2614C109.168 44.065 108.285 42.4313 108.022 40.6477C107.938 40.204 107.881 39.7557 107.852 39.3052C107.056 40.4418 106.196 41.5071 105.368 42.509C103.833 44.4516 101.885 46.0288 99.6656 47.1267C97.3618 48.2516 94.7214 48.4776 92.2599 47.7604C90.9024 47.425 89.607 46.8756 88.4224 46.1327C87.7934 45.7235 87.2266 45.226 86.7392 44.6555C86.2561 45.1545 85.7729 45.6139 85.3096 46.0575C85.0284 46.3268 84.7433 46.5961 84.466 46.8693C84.0332 47.2973 83.5189 47.6341 82.9537 47.86C82.3884 48.0858 81.7836 48.196 81.175 48.1841C80.8513 48.1837 80.5282 48.1572 80.2087 48.1049C78.8006 47.8963 77.4263 47.5021 76.1217 46.9327L76.0821 46.9129C74.762 46.3255 73.6339 45.3786 72.8267 44.1803C71.6038 45.1799 70.2567 46.0172 68.8189 46.6713C67.3908 47.3618 65.854 47.8 64.2765 47.9663C62.8895 48.1212 61.4932 48.1755 60.0984 48.1287C57.7612 48.0432 55.4919 47.3201 53.5362 46.0377C51.4918 44.6459 50.0324 42.5492 49.4373 40.1487C49.4254 40.0972 49.4095 40.0457 49.3976 39.9942C48.7253 40.3062 48.018 40.5362 47.2908 40.6794C45.3974 41.0962 43.424 40.9573 41.6078 40.2794C40.6528 39.9172 39.8055 39.3184 39.1453 38.5391C38.4852 37.7598 38.0338 36.8256 37.8336 35.8241C36.3528 37.941 35.0037 40.1471 33.7941 42.4298C33.6674 42.6635 33.5406 42.9486 33.402 43.2456C33.1303 43.8687 32.8181 44.4732 32.4674 45.0555C31.869 46.0513 31.0178 46.871 30.0002 47.4316C28.9827 47.9922 27.835 48.2737 26.6735 48.2475H26.6537C25.4171 48.2833 24.1906 48.0154 23.0815 47.4673C22.9548 47.4 22.832 47.3287 22.7132 47.2535C22.5429 47.3406 22.3726 47.4238 22.1944 47.5069C20.6027 48.3094 18.8833 48.828 17.1133 49.0396L16.8282 49.0712C16.0956 49.1425 15.2916 49.2217 14.4441 49.2217C14.2025 49.2217 13.957 49.2138 13.7115 49.2019C11.2732 49.0986 8.93145 48.2204 7.02649 46.6951C5.10217 45.1202 3.78599 42.9247 3.30381 40.4853C2.95972 38.8359 2.90745 37.139 3.14936 35.4716C3.50456 33.0425 4.29189 30.6966 5.47405 28.545C6.37434 26.8257 7.44787 25.2028 8.67793 23.7016C10.0183 22.0683 11.6058 20.6546 13.3828 19.5116C14.822 18.5733 16.4311 17.9261 18.1193 17.6067C20.4202 17.179 22.63 17.7295 24.8914 19.2938C26.0622 20.0949 27.069 21.1125 27.8576 22.2917C29.4021 20.1334 31.3348 18.8859 33.604 18.5928C34.7495 18.4059 35.9248 18.5712 36.9743 19.0669C38.0238 19.5627 38.8979 20.3655 39.4811 21.369C40.1334 20.9211 40.8223 20.529 41.5404 20.1968C43.0483 19.4532 44.7153 19.0902 46.3957 19.1394C48.9897 19.2542 50.962 20.1136 52.4193 21.769C52.9989 22.4293 53.4394 23.1998 53.7144 24.0343C54.2974 23.3274 54.9357 22.6679 55.6232 22.062C57.4542 20.3649 59.7326 19.227 62.1894 18.7829C63.0903 18.6537 64.0028 18.6245 64.9101 18.6958C65.1002 18.7037 65.2943 18.7116 65.4844 18.7156C66.8577 18.7681 68.2067 19.0939 69.4526 19.674C71.0342 20.3538 72.3782 21.4882 73.3139 22.9333C73.5119 22.6046 73.7257 22.2799 73.9515 21.967C75.298 20.1017 76.985 19.0007 78.9652 18.6918C79.8426 18.5265 80.7448 18.5442 81.615 18.7439C82.4853 18.9435 83.3049 19.3209 84.0225 19.8522C84.8695 20.5089 85.5078 21.3972 85.8599 22.4095C86.2121 23.4217 86.2631 24.5144 86.0066 25.555C85.9313 25.9115 85.8521 26.2718 85.7729 26.6283C86.0937 25.9431 86.4224 25.2501 86.767 24.565C87.8046 22.4739 89.1748 21.0443 90.953 20.2007C92.0387 19.6598 93.2513 19.4249 94.4604 19.5212C95.6696 19.6175 96.8297 20.0414 97.8162 20.7472C98.7112 21.3571 99.8082 22.5492 99.9587 24.7669C100.008 26.1056 99.8023 27.4415 99.3528 28.7035C99.2656 28.9886 99.1785 29.2777 99.0874 29.5668L99.2538 29.1866C99.5904 28.4183 99.931 27.65 100.276 26.8896C101.329 24.5531 102.41 22.165 105.297 20.3789C105.936 19.9658 106.618 19.6257 107.333 19.3651C109.57 18.6047 114.188 18.7908 115.82 21.7531C116.689 20.9589 117.671 20.2983 118.734 19.7928C120.183 19.0742 121.779 18.7014 123.396 18.7037L123.546 18.7077C124.781 18.6737 126.014 18.8299 127.202 19.171C127.965 19.4056 128.678 19.7803 129.304 20.276C131.079 19.6463 133.34 19.6859 135.007 20.9967C135.336 21.2598 135.629 21.5647 135.879 21.9036C136.385 21.1062 136.96 20.3548 137.597 19.6582C138.312 18.8634 139.174 18.2151 140.136 17.7493C139.777 16.8955 139.51 16.0061 139.34 15.0959C139.156 14.2278 139.05 13.3452 139.023 12.4583V12.3871C138.979 10.7227 139.475 9.08884 140.437 7.72975C141.03 6.88081 141.814 6.18302 142.726 5.69257C143.638 5.20212 144.653 4.93272 145.688 4.90606C147.156 4.83374 148.617 5.15215 149.922 5.82881C151.15 6.50112 152.117 7.56804 152.664 8.85721C153.212 10.1464 153.309 11.5825 152.939 12.9336Z"/>
</mask>
<path d="M152.939 12.9336V12.9415C152.227 15.8008 150.179 17.8721 148.706 19.179L148.67 19.2106C148.441 19.4101 148.2 19.5965 147.95 19.769C148.058 19.9913 148.15 20.2217 148.223 20.4581L148.235 20.5017C148.516 21.4437 148.587 22.4359 148.445 23.4085C148.177 25.0345 147.737 26.6275 147.134 28.1609C146.868 28.9054 146.615 29.6104 146.421 30.3034C145.886 32.1568 145.276 34.3508 144.785 36.5924C144.436 38.2271 144.313 39.9022 144.421 41.5704C144.485 42.3074 144.353 43.0482 144.038 43.7175C143.723 44.3868 143.236 44.9605 142.627 45.3802C141.444 46.2931 140.118 47.0036 138.702 47.4832C136.37 48.1921 134.742 47.5742 133.788 46.9287C133.631 46.8232 133.482 46.7081 133.34 46.5842C132.161 47.3221 130.843 47.8076 129.467 48.0099C128.917 48.0918 128.363 48.1341 127.807 48.1366C126.728 48.1673 125.655 47.9694 124.658 47.5557C123.66 47.1421 122.762 46.5222 122.021 45.7367C121.826 45.5317 121.643 45.3162 121.471 45.0911C120.954 45.4638 120.41 45.7974 119.843 46.0891C118.246 46.9352 116.421 47.2514 114.632 46.9921C113.121 46.8257 111.692 46.2245 110.517 45.2614C109.168 44.065 108.285 42.4313 108.022 40.6477C107.938 40.204 107.881 39.7557 107.852 39.3052C107.056 40.4418 106.196 41.5071 105.368 42.509C103.833 44.4516 101.885 46.0288 99.6656 47.1267C97.3618 48.2516 94.7214 48.4776 92.2599 47.7604C90.9024 47.425 89.607 46.8756 88.4224 46.1327C87.7934 45.7235 87.2266 45.226 86.7392 44.6555C86.2561 45.1545 85.7729 45.6139 85.3096 46.0575C85.0284 46.3268 84.7433 46.5961 84.466 46.8693C84.0332 47.2973 83.5189 47.6341 82.9537 47.86C82.3884 48.0858 81.7836 48.196 81.175 48.1841C80.8513 48.1837 80.5282 48.1572 80.2087 48.1049C78.8006 47.8963 77.4263 47.5021 76.1217 46.9327L76.0821 46.9129C74.762 46.3255 73.6339 45.3786 72.8267 44.1803C71.6038 45.1799 70.2567 46.0172 68.8189 46.6713C67.3908 47.3618 65.854 47.8 64.2765 47.9663C62.8895 48.1212 61.4932 48.1755 60.0984 48.1287C57.7612 48.0432 55.4919 47.3201 53.5362 46.0377C51.4918 44.6459 50.0324 42.5492 49.4373 40.1487C49.4254 40.0972 49.4095 40.0457 49.3976 39.9942C48.7253 40.3062 48.018 40.5362 47.2908 40.6794C45.3974 41.0962 43.424 40.9573 41.6078 40.2794C40.6528 39.9172 39.8055 39.3184 39.1453 38.5391C38.4852 37.7598 38.0338 36.8256 37.8336 35.8241C36.3528 37.941 35.0037 40.1471 33.7941 42.4298C33.6674 42.6635 33.5406 42.9486 33.402 43.2456C33.1303 43.8687 32.8181 44.4732 32.4674 45.0555C31.869 46.0513 31.0178 46.871 30.0002 47.4316C28.9827 47.9922 27.835 48.2737 26.6735 48.2475H26.6537C25.4171 48.2833 24.1906 48.0154 23.0815 47.4673C22.9548 47.4 22.832 47.3287 22.7132 47.2535C22.5429 47.3406 22.3726 47.4238 22.1944 47.5069C20.6027 48.3094 18.8833 48.828 17.1133 49.0396L16.8282 49.0712C16.0956 49.1425 15.2916 49.2217 14.4441 49.2217C14.2025 49.2217 13.957 49.2138 13.7115 49.2019C11.2732 49.0986 8.93145 48.2204 7.02649 46.6951C5.10217 45.1202 3.78599 42.9247 3.30381 40.4853C2.95972 38.8359 2.90745 37.139 3.14936 35.4716C3.50456 33.0425 4.29189 30.6966 5.47405 28.545C6.37434 26.8257 7.44787 25.2028 8.67793 23.7016C10.0183 22.0683 11.6058 20.6546 13.3828 19.5116C14.822 18.5733 16.4311 17.9261 18.1193 17.6067C20.4202 17.179 22.63 17.7295 24.8914 19.2938C26.0622 20.0949 27.069 21.1125 27.8576 22.2917C29.4021 20.1334 31.3348 18.8859 33.604 18.5928C34.7495 18.4059 35.9248 18.5712 36.9743 19.0669C38.0238 19.5627 38.8979 20.3655 39.4811 21.369C40.1334 20.9211 40.8223 20.529 41.5404 20.1968C43.0483 19.4532 44.7153 19.0902 46.3957 19.1394C48.9897 19.2542 50.962 20.1136 52.4193 21.769C52.9989 22.4293 53.4394 23.1998 53.7144 24.0343C54.2974 23.3274 54.9357 22.6679 55.6232 22.062C57.4542 20.3649 59.7326 19.227 62.1894 18.7829C63.0903 18.6537 64.0028 18.6245 64.9101 18.6958C65.1002 18.7037 65.2943 18.7116 65.4844 18.7156C66.8577 18.7681 68.2067 19.0939 69.4526 19.674C71.0342 20.3538 72.3782 21.4882 73.3139 22.9333C73.5119 22.6046 73.7257 22.2799 73.9515 21.967C75.298 20.1017 76.985 19.0007 78.9652 18.6918C79.8426 18.5265 80.7448 18.5442 81.615 18.7439C82.4853 18.9435 83.3049 19.3209 84.0225 19.8522C84.8695 20.5089 85.5078 21.3972 85.8599 22.4095C86.2121 23.4217 86.2631 24.5144 86.0066 25.555C85.9313 25.9115 85.8521 26.2718 85.7729 26.6283C86.0937 25.9431 86.4224 25.2501 86.767 24.565C87.8046 22.4739 89.1748 21.0443 90.953 20.2007C92.0387 19.6598 93.2513 19.4249 94.4604 19.5212C95.6696 19.6175 96.8297 20.0414 97.8162 20.7472C98.7112 21.3571 99.8082 22.5492 99.9587 24.7669C100.008 26.1056 99.8023 27.4415 99.3528 28.7035C99.2656 28.9886 99.1785 29.2777 99.0874 29.5668L99.2538 29.1866C99.5904 28.4183 99.931 27.65 100.276 26.8896C101.329 24.5531 102.41 22.165 105.297 20.3789C105.936 19.9658 106.618 19.6257 107.333 19.3651C109.57 18.6047 114.188 18.7908 115.82 21.7531C116.689 20.9589 117.671 20.2983 118.734 19.7928C120.183 19.0742 121.779 18.7014 123.396 18.7037L123.546 18.7077C124.781 18.6737 126.014 18.8299 127.202 19.171C127.965 19.4056 128.678 19.7803 129.304 20.276C131.079 19.6463 133.34 19.6859 135.007 20.9967C135.336 21.2598 135.629 21.5647 135.879 21.9036C136.385 21.1062 136.96 20.3548 137.597 19.6582C138.312 18.8634 139.174 18.2151 140.136 17.7493C139.777 16.8955 139.51 16.0061 139.34 15.0959C139.156 14.2278 139.05 13.3452 139.023 12.4583V12.3871C138.979 10.7227 139.475 9.08884 140.437 7.72975C141.03 6.88081 141.814 6.18302 142.726 5.69257C143.638 5.20212 144.653 4.93272 145.688 4.90606C147.156 4.83374 148.617 5.15215 149.922 5.82881C151.15 6.50112 152.117 7.56804 152.664 8.85721C153.212 10.1464 153.309 11.5825 152.939 12.9336Z" fill="#262626"/>
<path d="M152.939 12.9336V12.9415C152.227 15.8008 150.179 17.8721 148.706 19.179L148.67 19.2106C148.441 19.4101 148.2 19.5965 147.95 19.769C148.058 19.9913 148.15 20.2217 148.223 20.4581L148.235 20.5017C148.516 21.4437 148.587 22.4359 148.445 23.4085C148.177 25.0345 147.737 26.6275 147.134 28.1609C146.868 28.9054 146.615 29.6104 146.421 30.3034C145.886 32.1568 145.276 34.3508 144.785 36.5924C144.436 38.2271 144.313 39.9022 144.421 41.5704C144.485 42.3074 144.353 43.0482 144.038 43.7175C143.723 44.3868 143.236 44.9605 142.627 45.3802C141.444 46.2931 140.118 47.0036 138.702 47.4832C136.37 48.1921 134.742 47.5742 133.788 46.9287C133.631 46.8232 133.482 46.7081 133.34 46.5842C132.161 47.3221 130.843 47.8076 129.467 48.0099C128.917 48.0918 128.363 48.1341 127.807 48.1366C126.728 48.1673 125.655 47.9694 124.658 47.5557C123.66 47.1421 122.762 46.5222 122.021 45.7367C121.826 45.5317 121.643 45.3162 121.471 45.0911C120.954 45.4638 120.41 45.7974 119.843 46.0891C118.246 46.9352 116.421 47.2514 114.632 46.9921C113.121 46.8257 111.692 46.2245 110.517 45.2614C109.168 44.065 108.285 42.4313 108.022 40.6477C107.938 40.204 107.881 39.7557 107.852 39.3052C107.056 40.4418 106.196 41.5071 105.368 42.509C103.833 44.4516 101.885 46.0288 99.6656 47.1267C97.3618 48.2516 94.7214 48.4776 92.2599 47.7604C90.9024 47.425 89.607 46.8756 88.4224 46.1327C87.7934 45.7235 87.2266 45.226 86.7392 44.6555C86.2561 45.1545 85.7729 45.6139 85.3096 46.0575C85.0284 46.3268 84.7433 46.5961 84.466 46.8693C84.0332 47.2973 83.5189 47.6341 82.9537 47.86C82.3884 48.0858 81.7836 48.196 81.175 48.1841C80.8513 48.1837 80.5282 48.1572 80.2087 48.1049C78.8006 47.8963 77.4263 47.5021 76.1217 46.9327L76.0821 46.9129C74.762 46.3255 73.6339 45.3786 72.8267 44.1803C71.6038 45.1799 70.2567 46.0172 68.8189 46.6713C67.3908 47.3618 65.854 47.8 64.2765 47.9663C62.8895 48.1212 61.4932 48.1755 60.0984 48.1287C57.7612 48.0432 55.4919 47.3201 53.5362 46.0377C51.4918 44.6459 50.0324 42.5492 49.4373 40.1487C49.4254 40.0972 49.4095 40.0457 49.3976 39.9942C48.7253 40.3062 48.018 40.5362 47.2908 40.6794C45.3974 41.0962 43.424 40.9573 41.6078 40.2794C40.6528 39.9172 39.8055 39.3184 39.1453 38.5391C38.4852 37.7598 38.0338 36.8256 37.8336 35.8241C36.3528 37.941 35.0037 40.1471 33.7941 42.4298C33.6674 42.6635 33.5406 42.9486 33.402 43.2456C33.1303 43.8687 32.8181 44.4732 32.4674 45.0555C31.869 46.0513 31.0178 46.871 30.0002 47.4316C28.9827 47.9922 27.835 48.2737 26.6735 48.2475H26.6537C25.4171 48.2833 24.1906 48.0154 23.0815 47.4673C22.9548 47.4 22.832 47.3287 22.7132 47.2535C22.5429 47.3406 22.3726 47.4238 22.1944 47.5069C20.6027 48.3094 18.8833 48.828 17.1133 49.0396L16.8282 49.0712C16.0956 49.1425 15.2916 49.2217 14.4441 49.2217C14.2025 49.2217 13.957 49.2138 13.7115 49.2019C11.2732 49.0986 8.93145 48.2204 7.02649 46.6951C5.10217 45.1202 3.78599 42.9247 3.30381 40.4853C2.95972 38.8359 2.90745 37.139 3.14936 35.4716C3.50456 33.0425 4.29189 30.6966 5.47405 28.545C6.37434 26.8257 7.44787 25.2028 8.67793 23.7016C10.0183 22.0683 11.6058 20.6546 13.3828 19.5116C14.822 18.5733 16.4311 17.9261 18.1193 17.6067C20.4202 17.179 22.63 17.7295 24.8914 19.2938C26.0622 20.0949 27.069 21.1125 27.8576 22.2917C29.4021 20.1334 31.3348 18.8859 33.604 18.5928C34.7495 18.4059 35.9248 18.5712 36.9743 19.0669C38.0238 19.5627 38.8979 20.3655 39.4811 21.369C40.1334 20.9211 40.8223 20.529 41.5404 20.1968C43.0483 19.4532 44.7153 19.0902 46.3957 19.1394C48.9897 19.2542 50.962 20.1136 52.4193 21.769C52.9989 22.4293 53.4394 23.1998 53.7144 24.0343C54.2974 23.3274 54.9357 22.6679 55.6232 22.062C57.4542 20.3649 59.7326 19.227 62.1894 18.7829C63.0903 18.6537 64.0028 18.6245 64.9101 18.6958C65.1002 18.7037 65.2943 18.7116 65.4844 18.7156C66.8577 18.7681 68.2067 19.0939 69.4526 19.674C71.0342 20.3538 72.3782 21.4882 73.3139 22.9333C73.5119 22.6046 73.7257 22.2799 73.9515 21.967C75.298 20.1017 76.985 19.0007 78.9652 18.6918C79.8426 18.5265 80.7448 18.5442 81.615 18.7439C82.4853 18.9435 83.3049 19.3209 84.0225 19.8522C84.8695 20.5089 85.5078 21.3972 85.8599 22.4095C86.2121 23.4217 86.2631 24.5144 86.0066 25.555C85.9313 25.9115 85.8521 26.2718 85.7729 26.6283C86.0937 25.9431 86.4224 25.2501 86.767 24.565C87.8046 22.4739 89.1748 21.0443 90.953 20.2007C92.0387 19.6598 93.2513 19.4249 94.4604 19.5212C95.6696 19.6175 96.8297 20.0414 97.8162 20.7472C98.7112 21.3571 99.8082 22.5492 99.9587 24.7669C100.008 26.1056 99.8023 27.4415 99.3528 28.7035C99.2656 28.9886 99.1785 29.2777 99.0874 29.5668L99.2538 29.1866C99.5904 28.4183 99.931 27.65 100.276 26.8896C101.329 24.5531 102.41 22.165 105.297 20.3789C105.936 19.9658 106.618 19.6257 107.333 19.3651C109.57 18.6047 114.188 18.7908 115.82 21.7531C116.689 20.9589 117.671 20.2983 118.734 19.7928C120.183 19.0742 121.779 18.7014 123.396 18.7037L123.546 18.7077C124.781 18.6737 126.014 18.8299 127.202 19.171C127.965 19.4056 128.678 19.7803 129.304 20.276C131.079 19.6463 133.34 19.6859 135.007 20.9967C135.336 21.2598 135.629 21.5647 135.879 21.9036C136.385 21.1062 136.96 20.3548 137.597 19.6582C138.312 18.8634 139.174 18.2151 140.136 17.7493C139.777 16.8955 139.51 16.0061 139.34 15.0959C139.156 14.2278 139.05 13.3452 139.023 12.4583V12.3871C138.979 10.7227 139.475 9.08884 140.437 7.72975C141.03 6.88081 141.814 6.18302 142.726 5.69257C143.638 5.20212 144.653 4.93272 145.688 4.90606C147.156 4.83374 148.617 5.15215 149.922 5.82881C151.15 6.50112 152.117 7.56804 152.664 8.85721C153.212 10.1464 153.309 11.5825 152.939 12.9336Z" stroke="white" stroke-width="4" mask="url(#path-1-outside-1_7_3063)"/>
<path d="M150.051 12.2215C149.576 14.1264 148.158 15.6907 146.728 16.958C146.22 17.3946 145.649 17.7512 145.033 18.0154C144.289 18.3441 143.79 18.1342 143.342 17.4649C142.788 16.558 142.415 15.5519 142.245 14.5026C142.095 13.8031 142.008 13.0912 141.988 12.3759C141.948 11.3402 142.247 10.3196 142.839 9.4691C143.169 8.98699 143.609 8.59085 144.123 8.31385C144.637 8.03686 145.21 7.88708 145.794 7.87706C146.743 7.82375 147.689 8.02472 148.534 8.45922C149.893 9.16455 150.408 10.7839 150.051 12.2215Z" fill="#FF5A50"/>
<path d="M145.387 21.3502C145.074 20.3562 144.159 20.1779 143.276 20.0948C141.827 19.9641 140.69 20.6928 139.775 21.6789C139.022 22.5221 138.364 23.4466 137.815 24.4353C136.666 26.4213 135.968 28.6145 135.299 30.7923C134.864 32.2085 134.482 33.4544 133.94 35.292C133.619 36.3791 133.257 38.0559 132.25 38.9026C131.999 39.1347 131.67 39.2659 131.328 39.2709C130.908 39.2115 130.757 38.7679 130.738 38.3561C130.714 37.9006 130.714 37.4452 130.734 36.9898C130.849 35.5938 131.141 34.2179 131.601 32.8948C132.274 30.7167 132.999 28.5544 133.652 26.3683C133.931 25.6137 133.944 24.7864 133.688 24.0238C133.577 23.7546 133.4 23.5176 133.173 23.3347C132.266 22.6218 130.623 22.7406 129.629 23.402C129.3 23.6277 128.975 23.8614 128.631 24.099C128.555 23.9763 128.496 23.8891 128.441 23.7941C128.22 23.3679 127.917 22.9897 127.55 22.6817C127.182 22.3737 126.756 22.142 126.298 22.0001C125.339 21.7461 124.347 21.6367 123.356 21.6753C122.19 21.6815 121.042 21.9566 120.001 22.4793C118.365 23.3073 116.971 24.5465 115.958 26.0752C114.835 27.6075 113.836 29.2271 112.972 30.9186C112.073 32.6202 111.418 34.4401 111.027 36.3244C110.895 37.0144 110.815 37.7134 110.79 38.4155C110.783 38.9843 110.835 39.5522 110.944 40.1105C111.086 41.2207 111.616 42.2448 112.441 43.0015C113.193 43.5987 114.103 43.9647 115.059 44.0549C116.228 44.2263 117.422 44.0181 118.465 43.4609C119.596 42.8658 120.613 42.0762 121.47 41.1283C121.831 40.7402 122.211 40.3679 122.623 39.9402C122.67 40.1897 122.706 40.3481 122.73 40.5065C122.878 41.691 123.382 42.8027 124.175 43.6945C125.514 45.1044 127.229 45.3381 129.035 45.0727C130.028 44.9251 130.979 44.5689 131.825 44.0276C132.267 43.7464 133.563 42.2269 134.069 42.6213C134.69 43.1053 134.753 43.9999 135.448 44.468C135.808 44.673 136.21 44.7952 136.623 44.8257C137.037 44.8563 137.452 44.7944 137.839 44.6446C138.944 44.2509 139.979 43.6827 140.904 42.9615C141.105 42.8297 141.264 42.6427 141.362 42.4228C141.46 42.203 141.492 41.9596 141.454 41.7219C141.337 39.7894 141.48 37.8497 141.882 35.9557C142.361 33.7815 142.948 31.6311 143.561 29.4925C144.179 27.3144 145.197 25.2511 145.506 22.9818C145.585 22.4358 145.545 21.8789 145.387 21.3502ZM125.407 28.194C124.778 30.8486 123.549 33.3237 121.815 35.4294C121.212 36.2317 120.485 36.9323 119.661 37.5046C119.173 37.8294 118.698 37.9482 118.429 37.3462C118.355 37.1804 118.308 37.004 118.29 36.8234C118.183 35.7898 118.694 34.7126 119.047 33.7701C119.435 32.7087 119.869 31.6698 120.35 30.6533C121.043 29.184 121.855 27.7742 123.122 26.7168C123.536 26.404 123.998 26.1582 124.488 25.9881C124.825 25.8534 125.221 26.1544 125.375 26.5267C125.56 27.0655 125.571 27.6485 125.407 28.194Z" fill="#FF5A50"/>
<path d="M51.1177 33.6952C50.4127 35.8853 49.0068 37.307 46.7019 37.7704C45.3611 38.0754 43.9606 37.9846 42.6704 37.509C42.0929 37.2882 41.5941 36.9007 41.2373 36.3959C40.8805 35.891 40.6818 35.2915 40.6665 34.6734C40.5714 33.022 41.2328 31.5963 42.0011 30.2023C42.3219 29.6241 42.6545 29.0498 42.9199 28.4439C43.0339 28.1408 43.0773 27.8158 43.0466 27.4934C43.0308 27.3862 42.9907 27.2839 42.9294 27.1945C42.8681 27.1051 42.7872 27.0308 42.6929 26.9773C42.5986 26.9239 42.4933 26.8926 42.3851 26.886C42.2769 26.8793 42.1686 26.8975 42.0684 26.939C41.4972 27.2042 40.9644 27.5452 40.4843 27.9528C38.5556 29.7231 37.0072 31.8141 35.5141 33.9566C33.9176 36.2234 32.4653 38.5884 31.1657 41.0376C30.742 41.8455 30.4251 42.7168 29.946 43.4851C29.6122 44.054 29.13 44.5215 28.551 44.8376C27.972 45.1536 27.318 45.3062 26.6589 45.2791C25.8998 45.3128 25.1439 45.1605 24.457 44.8355C23.9263 44.549 23.5201 44.0765 23.3164 43.5088C22.5283 43.9484 21.7481 44.4355 20.9244 44.8237C19.6396 45.4775 18.2516 45.9048 16.8215 46.087C15.8488 46.2141 14.8676 46.2644 13.887 46.2375C12.0691 46.1718 10.3201 45.525 8.897 44.392C7.49615 43.2424 6.54312 41.6376 6.204 39.8574C5.93347 38.5422 5.89593 37.1897 6.09312 35.8615C6.40093 33.7813 7.07967 31.7733 8.09702 29.933C8.90498 28.3907 9.86837 26.935 10.9722 25.5885C12.117 24.1941 13.4718 22.9863 14.9879 22.0084C16.1078 21.2802 17.3588 20.7772 18.671 20.5273C20.37 20.2104 21.8353 20.7966 23.1976 21.7391C24.1456 22.3818 24.9461 23.2188 25.5461 24.1945C26.0962 25.1895 26.2423 26.358 25.954 27.4578C25.6598 28.6586 25.2279 29.8213 24.6669 30.923C24.152 32.0636 23.6412 33.2042 23.1144 34.3408C23.0274 34.5878 22.846 34.7903 22.6099 34.9039C22.3739 35.0174 22.1024 35.0328 21.8551 34.9467C21.1209 34.7142 20.4605 34.2936 19.9394 33.7266C19.4183 33.1597 19.0547 32.4662 18.8849 31.7151C18.7614 30.639 18.9368 29.5496 19.3918 28.5667C19.863 27.3508 20.4056 26.1628 20.9284 24.9707C20.9767 24.8907 21.0082 24.8018 21.021 24.7092C21.0337 24.6167 21.0275 24.5225 21.0027 24.4325C20.9779 24.3424 20.9349 24.2584 20.8765 24.1854C20.8181 24.1125 20.7455 24.0523 20.663 24.0084C20.063 24.1479 19.5192 24.4653 19.1027 24.9192C18.3661 25.6479 17.669 26.4162 17.0037 27.2122C15.6641 28.8856 14.5214 30.7074 13.5979 32.6418C13.0197 33.754 12.6594 34.9665 12.5365 36.214C12.4141 37.1725 12.4449 38.1443 12.6276 39.0931C12.7279 39.6962 13.0326 40.2465 13.4904 40.6518C13.9483 41.057 14.5315 41.2925 15.1424 41.3188C17.4852 41.4495 19.8106 40.8473 21.7957 39.5961C22.5526 39.0775 23.2797 38.5169 23.9738 37.9169C24.1009 37.7969 24.1962 37.6472 24.2511 37.4813C24.952 35.6081 25.6094 33.719 26.354 31.8656C26.9005 30.4914 27.55 29.1567 28.1599 27.8102C28.734 26.4876 29.437 25.2248 30.2588 24.04C31.1855 22.7371 32.3538 21.751 33.9815 21.5411C35.2923 21.3708 36.5002 21.8104 37.126 23.2915C37.6764 24.5945 37.3596 25.8459 36.9359 27.0974C36.825 27.4182 36.7181 27.739 36.5794 28.1508C37.3438 27.3192 37.9933 26.5271 38.7259 25.8301C39.9056 24.6338 41.2761 23.642 42.7813 22.8955C43.8595 22.3554 45.0527 22.085 46.2584 22.1074C47.7514 22.1747 49.1454 22.551 50.191 23.7351C50.646 24.2699 50.946 24.9191 51.0583 25.6123C51.3038 26.8994 50.8761 28.0558 50.4009 29.2122C50.0484 30.0676 49.688 30.923 49.4227 31.8062C49.2088 32.523 49.589 33.0299 50.3494 33.224C50.518 33.2677 50.6904 33.2955 50.8642 33.3071C51.1454 33.319 51.185 33.4774 51.1177 33.6952Z" fill="white"/>
<path d="M113.271 23.2916C112.647 21.8924 109.565 21.7443 108.293 22.1779C107.79 22.3662 107.31 22.6108 106.862 22.907C104.735 24.2226 103.979 25.9121 102.981 28.1188C101.991 30.2969 101.08 32.5147 100.019 34.6572C99.3139 36.0352 98.5119 37.3613 97.6188 38.6254C97.1112 39.4477 96.2978 40.0346 95.3575 40.2571C94.7991 40.368 94.5694 40.1185 94.3714 39.6313C94.1891 39.1841 94.0782 38.711 94.0427 38.2294C93.9632 36.8462 94.1418 35.4602 94.5694 34.1424C95.1991 32.0315 95.8763 29.9365 96.5139 27.8297C96.8501 26.9146 97.0139 25.9451 96.9971 24.9703C97.0013 24.6302 96.9266 24.2936 96.7788 23.9872C96.6311 23.6807 96.4143 23.4127 96.1456 23.2041C95.5857 22.7948 94.9236 22.5482 94.2324 22.4916C93.5413 22.435 92.8479 22.5706 92.2289 22.8833C90.9141 23.509 90.0547 24.6258 89.425 25.8931C88.5339 27.6752 87.73 29.5009 86.8587 31.291C86.2607 32.5305 85.6152 33.7503 84.9895 34.974C84.1966 36.6567 83.243 38.2588 82.142 39.7581C81.9678 39.9798 81.6588 40.2887 81.4608 40.2531C81.2232 40.2175 81.0331 39.8571 80.8311 39.6313C80.7966 39.59 80.7722 39.5412 80.7599 39.4888C80.4577 38.3977 80.4049 37.2526 80.6054 36.1384C80.8074 34.879 81.0608 33.6236 81.3499 32.38C81.9202 29.8969 82.5697 27.4297 83.1044 24.9347C83.2428 24.4443 83.2323 23.9239 83.0744 23.4395C82.9164 22.9551 82.6181 22.5285 82.2172 22.214C81.8178 21.9284 81.3633 21.7288 80.8828 21.6279C80.4022 21.527 79.9058 21.527 79.4252 21.6279C78.1065 21.8338 77.1362 22.6338 76.3639 23.703C75.4182 25.0182 74.7474 26.5106 74.3917 28.0911C74.0868 29.3979 73.8848 30.7286 73.667 32.0593C73.568 32.6731 73.564 33.2988 73.4888 33.9206C73.4673 34.0927 73.3941 34.2543 73.2789 34.384C72.7522 34.9344 72.2175 35.473 71.667 35.9998C70.6246 37.0048 69.43 37.8388 68.1273 38.471C67.2787 38.9256 66.3421 39.192 65.3812 39.2521C64.4204 39.3123 63.4579 39.1647 62.5592 38.8195C61.9778 38.6 61.4614 38.2369 61.0584 37.7639C60.6553 37.2909 60.3787 36.7235 60.2543 36.1146C61.0265 36.1146 61.7711 36.1225 62.5156 36.1146C64.2776 36.0952 66.0076 35.6423 67.5531 34.7958C69.0095 34.0542 70.1935 32.8702 70.9352 31.4137C71.7742 29.7886 71.9762 27.9088 71.5015 26.1426C71.29 25.307 70.8857 24.5326 70.3211 23.8813C69.7565 23.2301 69.0472 22.7201 68.2501 22.3922C67.3586 21.9703 66.3919 21.7306 65.4066 21.6873C64.4996 21.6093 63.5872 21.6185 62.6819 21.715C60.7755 22.0697 59.01 22.9614 57.593 24.2852C56.087 25.6405 54.8427 27.2607 53.9218 29.0653C52.8596 31.0677 52.2028 33.26 51.9891 35.5166C51.8628 36.8068 51.9688 38.1092 52.302 39.362C52.7121 41.0765 53.7437 42.578 55.197 43.5758C56.7077 44.5567 58.4579 45.1058 60.2582 45.1639C61.5131 45.2014 62.769 45.1498 64.0165 45.0094C65.2608 44.8676 66.4716 44.514 67.5966 43.9639C69.4499 43.1167 71.1205 41.9168 72.5153 40.4313C72.951 39.9759 73.3668 39.4967 73.7391 39.0809C74.0955 39.9482 74.4163 40.8472 74.8242 41.7026C75.3164 42.8144 76.2002 43.7066 77.3073 44.2094C78.3793 44.6771 79.5086 45.0007 80.6656 45.1718C80.9642 45.2495 81.2773 45.2522 81.5772 45.1797C81.8771 45.1071 82.1543 44.9616 82.3844 44.756C83.1487 44.0035 83.9447 43.2788 84.6893 42.5065C85.106 42.0453 85.4986 41.5628 85.8655 41.061C86.408 40.368 86.9427 39.663 87.509 38.9264C87.5724 39.2868 87.6159 39.5917 87.6832 39.8927C88.0357 41.4254 88.6892 42.756 90.0555 43.655C90.9831 44.2248 91.9948 44.6445 93.0534 44.8985C94.8237 45.4215 96.7257 45.2619 98.384 44.451C100.212 43.5364 101.814 42.2286 103.077 40.6214C104.09 39.428 105.035 38.1785 105.909 36.8789C107.235 34.8433 108.487 32.7484 109.699 30.6375C110.315 29.5635 110.915 28.4799 111.51 27.3944C111.997 26.5081 113.299 24.9454 113.378 23.949C113.399 23.7244 113.362 23.4981 113.271 23.2916ZM60.7849 31.0494C61.193 29.9341 61.8084 28.9062 62.5988 28.0198C63.0745 27.4242 63.7326 27.0012 64.472 26.8158C64.7173 26.7756 64.9688 26.798 65.2031 26.8811C65.4373 26.9641 65.6468 27.1051 65.812 27.2908C65.9772 27.4766 66.0928 27.7011 66.1479 27.9435C66.203 28.1859 66.196 28.4382 66.1274 28.6772C65.5611 31.085 63.9651 32.4474 61.6443 33.0414C61.1376 33.1266 60.6254 33.1755 60.1117 33.1879C60.3572 32.3959 60.5473 31.7147 60.7849 31.0494Z" fill="white"/>
</svg>
